<?xml version="1.0" encoding="UTF-8"?>
<svg id="Layer_2" xmlns="http://www.w3.org/2000/svg" viewBox="0 0 434.78 89.75">
  <defs>
    <style>
      .cls-1 {
        fill: #231f20;
      }
    </style>
  </defs>
  <g id="Layer_1-2" data-name="Layer_1">
    <path class="cls-1" d="M.6,33.95c10.36-.6,20.74,1.79,29.8,6.84s15.15,11.94,20.78,20.04c5.05,7.25,9.71,15.08,16.47,20.91s15.51,8.66,24.55,7.88c21.62-1.87,36.27-18.94,50.27-33.58,6.9-7.22,15.62-17.62,26.71-16.6,5.3.49,10.01,4.08,10.19,9.68.07,2.13-.57,4.35-2.11,5.87-2.77,2.74-6.52,1.85-7.81-1.78-1.5-4.22.46-9.04,3.33-12.17s7.14-5.4,11.41-6.47c10.64-2.66,21.42,2.26,31.4,5.39,18.15,5.69,37.78,4.01,54.41-5.45,3.92-2.23,7.61-4.87,10.97-7.87s7.14-6.79,9.22-11.1c1.76-3.65,2.16-7.88.04-11.47-1.73-2.93-5.04-4.78-8.44-3.79s-5.71,4.26-6.3,7.59c-.67,3.8,1.23,7.45,4.05,9.9,8.18,7.12,19.77,3.77,29.5,3.61,11.09-.19,21.78,2.3,30.7,9.11,8.14,6.21,14.69,14.32,23.78,19.28,17.39,9.5,38.42,7.25,56.8,2.15,4.74-1.32,9.42-2.86,14.04-4.55.75-.27.43-1.48-.33-1.21-18.8,6.85-40.31,12.32-60.11,6.54-4.93-1.44-9.63-3.63-13.87-6.53s-8.24-6.71-12.14-10.31c-7.46-6.86-15.2-12.49-25.32-14.57-5.18-1.07-10.52-1.34-15.8-1.1-5.97.28-12.05,1.51-18,.47-4.76-.83-9.83-3.55-11.64-8.29-1.71-4.48,1.27-11.23,6.65-11.13,6.03.11,7.54,7.67,5.92,12.21-1.75,4.89-5.84,8.91-9.63,12.31-7.39,6.61-16.4,11.34-25.94,13.96s-19.28,3.14-28.83,1.43c-10.58-1.9-20.32-7.07-31.04-8.32-8.01-.93-16.78,1.21-22.39,7.33-2.42,2.64-4.01,5.99-4.17,9.59-.13,3.03,1.05,6.9,4.24,7.96,3.45,1.14,6.85-1.67,8.03-4.74,1.28-3.36.56-7.45-1.64-10.25-5.64-7.18-16.31-4.8-22.8-.4-8.8,5.97-15.7,14.82-23.04,22.41-7.42,7.66-15.42,15.04-25.22,19.51s-20.87,6.11-30.72,1.77c-8.63-3.8-14.49-11.5-19.7-19.05-5.09-7.38-9.91-15.04-16.78-20.93-7.32-6.27-16.32-10.58-25.78-12.41-4.52-.87-9.12-1.17-13.72-.9-.8.05-.8,1.3,0,1.25h0Z"/>
  </g>
</svg>