<?xml version="1.0" encoding="UTF-8"?>
<svg xmlns="http://www.w3.org/2000/svg" version="1.1" viewBox="0 0 432 432">
  <defs>
    <style>
      .cls-1 {
        fill: #231f20;
      }
    </style>
  </defs>
  <!-- Generator: Adobe Illustrator 28.7.8, SVG Export Plug-In . SVG Version: 1.2.0 Build 200)  -->
  <g>
    <g id="Layer_1">
      <path class="cls-1" d="M-2.7,194c10.4-.6,20.7,1.8,29.8,6.8s15.1,11.9,20.8,20,9.7,15.1,16.5,20.9,15.5,8.7,24.6,7.9c21.6-1.9,36.3-18.9,50.3-33.6s15.6-17.6,26.7-16.6,10,4.1,10.2,9.7-.6,4.3-2.1,5.9c-2.8,2.7-6.5,1.9-7.8-1.8s.5-9,3.3-12.2,7.1-5.4,11.4-6.5c10.6-2.7,21.4,2.3,31.4,5.4,18.2,5.7,37.8,4,54.4-5.4,3.9-2.2,7.6-4.9,11-7.9,3.5-3.2,7.1-6.8,9.2-11.1s2.2-7.9,0-11.5-5-4.8-8.4-3.8-5.7,4.3-6.3,7.6,1.2,7.4,4,9.9c8.2,7.1,19.8,3.8,29.5,3.6s21.8,2.3,30.7,9.1,14.7,14.3,23.8,19.3c17.4,9.5,38.4,7.2,56.8,2.2,4.7-1.3,9.4-2.9,14-4.5s.4-1.5-.3-1.2c-18.8,6.9-40.3,12.3-60.1,6.5s-9.6-3.6-13.9-6.5-8.2-6.7-12.1-10.3c-7.5-6.9-15.2-12.5-25.3-14.6s-10.5-1.3-15.8-1.1-12,1.5-18,.5-9.8-3.5-11.6-8.3,1.3-11.2,6.6-11.1,7.5,7.7,5.9,12.2-5.8,8.9-9.6,12.3c-7.4,6.6-16.4,11.3-25.9,14-9.3,2.6-19.3,3.1-28.8,1.4s-20.3-7.1-31-8.3-16.8,1.2-22.4,7.3-4,6-4.2,9.6,1,6.9,4.2,8,6.9-1.7,8-4.7.6-7.4-1.6-10.3c-5.6-7.2-16.3-4.8-22.8-.4s-15.7,14.8-23,22.4-15.4,15-25.2,19.5c-9.5,4.3-20.9,6.1-30.7,1.8s-14.5-11.5-19.7-19.1-9.9-15-16.8-20.9-16.3-10.6-25.8-12.4-9.1-1.2-13.7-.9-.8,1.3,0,1.2h0Z"/>
    </g>
  </g>
</svg>